<?xml version="1.0" encoding="UTF-8"?>
<svg version="1.1" viewBox="0 0 1728 1856" width="1280" height="1280" xmlns="http://www.w3.org/2000/svg">
<path transform="translate(0)" d="m0 0h1728v1856h-1728z" fill="#EADFD9"/>
<path transform="translate(387,594)" d="m0 0h8l10 5 14 12 22 22 7 8 66 66 7 8 8 8 8 7 26 26 5 4 9 11-2 12-13 22-7 13-8 14-4 5-5 12-4 23-1 59 2 102 3 41 4 20 5 10 6 8 10 15 7 10 6 11 1 10-4 13-10 16-9 10-6 7-8 7-16 17-17 17-8 7-14 12-8 7-12 11-8 7-7 8-8 8-7 8-15 15-13 10-13 9h-6l-10-9-13-9-17-8-13-13-4-6-5-5-4-6-6-7v-2h-3l-5-5-5-4-6-11 1-7 8-11 16-17 9-10 19-19 11-9 7-7 8-7 9-10 12-11 16-15 11-12 8-10h2l8-16 1-4 1-15v-161l-1-62-2-21-4-15-5-10-11-10-4-5-14-11-9-9-8-7-7-8-9-8v-2l-4-2v-2l-4-2-10-9-23-23-7-8-10-11-8-15-2-9 6-12 9-10 9-8 8-7 10-9 8-7 16-13 15-10z" fill="#1B413B"/>
<path transform="translate(657,1233)" d="m0 0 9 3 13 10 10 9 14 10 13 6 13 2 22 1 115 1h88l15-3 11-6 11-8 10-7 15-8 9-3h16l8 4 11 8 12 11 5 4v2l4 2 4 4v2l4 2 7 7 7 8 16 17 18 20 25 25 13 12 26 26 7 8 7 10 1 2v6l-10 13-12 12-7 8-21 21-7 8-17 14-8 5-11 6-4 2-15-12-4-8-12-8-10-11-8-7-20-20-7-8-31-31-8-7-11-10-15-11-16-8-8-3-33-2-28-1h-120l-46 3-10 2-8 4-12 8-8 8-10 8-22 22-7 8-15 16h-2l-2 4-11 11-8 7-19 19-4 6-2 2-5 2-18 12-6 5-10 2-6-5-7-8-6-4-7-6-9-5-4-3-5-2-4-4-4-7-8-10-5-7-5-5-4-6-8-7-6-7v-6l7-9 3-4h2l2-4 10-10 8-7 12-13 22-22 6-5 7-8 16-17 3-4h2l2-4 7-8 5-5 9-11 24-22 11-9 12-10 15-9 9-4z" fill="#1B413B"/>
<path transform="translate(549,432)" d="m0 0h8l11 4 10 6 10 9 9 9v2h2v2h2l7 8 13 13 7 8 15 16 11 11 4 5 8 7 9 8 11 9 9 5 8 5 16 7 18 6 21 3h196l13-2 10-3 11-6 13-10 7-6 7-8 15-16 39-39 1-2h2l2-4h2l2-4h2l2-4 13-14 7-8 9-8 8-4 3-1h16l14 3 11 6 12 11 15 15 5 4 4 7 9 11 8 16 1 10v5l1 2-4 7-3 9-14 17-11 12-8 7-14 14-8 7-21 21-8 7-19 19-8 7-27 27-6 7-11 9-14 14-2 3-4-1-7-8-10-10-12-9-14-10-9-4-10-4-2-1-54-2-39-1h-106l-37 1-15 1-9 3-11 8-21 14-7 7-7 8-4 3-5-1-15-13-14-11-19-19-8-7-15-14-17-16-8-8v-2h-2l-7-8-36-36-8-7-9-9-8-7-8-9-7-11-3-6v-5h2l-2-5 1-4 10-14 9-10 7-8 9-7 11-12 14-16 8-7z" fill="#1B413B"/>
<path transform="translate(1295,598)" d="m0 0h11l11 4 11 8 7 5 6 7 5 5 9 8 6 5v2l4 2 4 6 7 10v2l3 1 4 14v16l-6 10-9 10-11 9-11 10-8 6-7 8-7 7-8 7-15 14-18 18-7 8-11 12-14 19-8 20-2 20v132l1 45 2 28 2 11 3 9 3 10 4 8 3 5 12 15 9 11 7 7 16 14 7 8 13 12 32 32 8 9 6 9 7 10 4 9-2 9-7 12-8 9-6 8-9 11-7 8-13 13-14 11-7 6-5 2h-6l-9-6-10-6v-2l-4-2-10-9-7-8-11-11-6-5-22-22-3-2v-2l-4-2-10-10-3-2v-2l-4-2-32-32-7-8-12-11-10-10-8-7-7-8-7-9-5-8 1-6 11-9 10-10 6-8 9-10 6-10 3-11 2-18 1-161 1-39v-29l-5-13-8-10-11-12v-2h-2l-11-15-11-11-4-3 1-5 7-6h2v-2l8-7 38-38 7-8 10-10 7-8 15-16 26-26 7-8 14-14 1-2h2l2-4 11-10 10-8 10-6z" fill="#1B413B"/>
<path transform="translate(550,430)" d="m0 0h7l13 3 3 1v2l4 1 14 11 11 8 2 5 4 2 9 8 3 4v2l4 2 4 5 5 5 2 4 4 2v2l4 2v2l4 2 7 8 9 8 9 12 12 11 17 11 14 7 30 7 14 2v2l14-2 1 1h21l10-1 7-1 4 1 29-2h50l11 1 40 1 12-2 13-3 11-3 7-4 5-5 12-7 15-15 7-8 12-11 11-11 3 1-32 32-7 8-11 12-16 12-16 8-8 2-10 1h-196l-21-3-23-8-17-8-8-6-5-3-17-14-7-7-6-5-7-8-14-14-7-8-15-16-10-10v-2h-2v-2h-2l-7-8-9-9-13-8-11-4h-8l-7 4-12 11-7 9-10 10-7 8-9 7-7 8-9 11-7 10 1 8h-2l3 11-3-3-5-10 2-5 14-19 8-10h2l2-4 14-12 11-11 9-11 8-8 9-6z" fill="#EED7CD"/>
<path transform="translate(578,1161)" d="m0 0 2 1 1 9-3 10-10 18-6 9-11 12-2 3h-2l-2 4-7 9h-2l-2 4-10 10-14 11-3 1v2l-24 16-4 2-1 3-11 9-10 7-7 4h-3l1-5 8-8 6-8 11-11 8-7 13-11 8-7 13-12 17-17 7-8 7-7 6-5 9-11 10-15 3-7h3z" fill="#FAF1EA"/>
<path transform="translate(1385,692)" d="m0 0 3 1-1 7-6 12-7 9-6 5-5 6-4 4h-2l-2 4-16 16-8 10-6 5h-2l-2 4-8 7-7 7-5 6-7 6-8 11-5 5-10 11-7 8-3 1-3-3 3-9 3-11 10-10 6-7 3-6 27-27 10-8 21-21 15-13 10-9 6-5 8-11 2-4z" fill="#FAF2EB"/>
<path transform="translate(724,1368)" d="m0 0h9l-4 3-8 5h-2v2l-11 7-10 10-13 8-12 12h-2v2h-2v2h-2l-2 4-9 12-8 11h-2v2h-2l-2 4-8 8h-2v2h-2v2l-8 6-5 5-9 8-8 6-10 6-5 4-8 4-9 6-5 3h-5l3-6 7-6 14-9 6-3 7-9 23-23 8-7 7-8 8-7 11-12 12-13 18-18 10-8 9-8 11-4 4-2z" fill="#FDF5EE"/>
<path transform="translate(303,675)" d="m0 0 4 5 9 14 12 14 10 10 7 6v2l4 2 45 45 4 3v2l4 2v2l4 2 10 9 7 5 6 7 3 2v2l3 1 6 10 7 14 2 7 1 36v32l-1 38-1 35v28l-2 73-2 18-5 9-1-2 4-11 1-15v-161l-1-62-2-21-4-15-5-10-11-10-4-5-14-11-9-9-8-7-7-8-9-8v-2l-4-2v-2l-4-2-10-9-23-23-7-8-10-11-8-15z" fill="#393733"/>
<path transform="translate(550,430)" d="m0 0h7l11 4 12 7 15 13 21 21v2l4 2 8 10 15 16 10 10 7 8 7 7 8 7 13 10 11 7 8 5 19 7 13 4 17 2h196l17-2 11-4 11-6 14-12 15-15v3l-10 10-6 7-16 12-16 8-8 2-10 1h-196l-21-3-23-8-17-8-8-6-5-3-17-14-7-7-6-5-7-8-14-14-7-8-15-16-10-10v-2h-2v-2h-2l-7-8-9-9-13-8-11-4h-8l-7 4-12 11-7 9-10 10-7 8-9 7-7 8-9 11-7 10 1 8h-2l3 11-3-3-5-10 2-5 14-19 8-10h2l2-4 14-12 11-11 9-11 8-8 9-6z" fill="#AA8E82"/>
<path transform="translate(1199,554)" d="m0 0v3l-13 14-8 7-14 14-8 7-21 21-8 7-19 19-8 7-27 27-6 7-11 9-14 14-2 3-4-1-7-8-10-10-12-9-14-10-9-4-10-4-2-1-54-2-39-1h-106l-37 1-15 1-9 3-11 8-6 4-4 3-2-1 11-9 8-5 4-4 13-4 30-2 62-1 63 1 67 3 22 2 8 2 6 3 10 3 4 3 6 3 4 5 6 3 9 7 5 7 6 3 2 5h2l2 4 3-5 11-11 6-7 5-4h2l2-4h2l1-3 7-6 5-6 7-6 6-7 6-5 5-5 17-16 7-7h2l2-4h2l2-4h2l2-4 4-4h2l1-3 8-7 9-7 4-6h2l2-4 8-8 7-6 4-4z" fill="#3A3733"/>
<path transform="translate(1280,795)" d="m0 0v3l-14 15-10 14-5 9-5 15-1 27v31l1 160 2 16 3 10 3 9 7 13 12 16 6 7 8 7 13 13 4 3v2l4 2v2l4 2 42 42 9 11 9 13 8 12 1 3v7l-2 7h-2l2-11-6-12-6-9-10-13-5-5v-2l-4-2-33-33-8-7-4-4v-2l-4-2-10-10-8-7-10-11-9-12-6-7-4-9-3-7-3-12-2-5-2-18-1-18-1-58v-119l2-20 8-20 14-19 8-8 7-8z" fill="#AA8E82"/>
<path transform="translate(1224,653)" d="m0 0v3l-34 34-7 8-15 16-7 7-7 8-39 39h-2v2l-8 6-1 5 10 9 7 7 8 11v2h2l9 11 10 11 5 11 1 4v29l-1 39-1 161-2 18-4 13-7 10-9 10-7 9-11 11-7 5-1 6 3 5-1 2-5-7v-6l5-5 10-9 8-9 11-15 10-16 2-11 1-11 1-159 1-42v-29l-3-7-6-8-11-12-13-19-11-13-8-7 1-4 10-8 7-7h2l2-4 12-11 9-10 16-16 7-8 17-17 7-8z" fill="#AA8E82"/>
<path transform="translate(960,1370)" d="m0 0h8l10 5 12 9 11 9 9 9 8 7 32 32 7 8 19 19 8 7 5 6 12 8 5 9 9 7 4 3v2l6-1-5 5h-7l-5-4-8-7-2-2-2-5-4-1-6-5v-2l-4-2-7-6v-2h-2l-7-8-20-20-8-10-13-13-6-7-1-3-8-7v-2l-4-2-7-6-1-4-4-1-4-3-14-8-10-8-6-5z" fill="#F4EAE2"/>
<path transform="translate(1259,821)" d="m0 0 1 3-9 16-2 6-1 25-1 2h2v80l1 13 1 4-1 6v18 3l1 7-2 1 1 8v17l-1 3v39l1 12 4 15 10 19 4 5v2h2l5 7v2l3 1v2l4 2 13 13 9 7 7 8 11 11 8 7 15 15 3 2 3 5 8 9 8 10 8 13-1 2-7-10-9-12-14-15-34-34-6-5-23-23-6-5-10-13-7-10-7-14-3-13-2-7-1-11-1-160v-31l1-27 6-18z" fill="#EED8CE"/>
<path transform="translate(294,1260)" d="m0 0 4 2 7 12 8 6v2h3l8 10 5 8 5 5 9 10 5 4v2l5 1 17 9 14 11 4 4h6l6-4 5-2 4 1-1 3-9 6-10 4h-5l-13-8v-2l-5-2-14-8-11-8-12-12-5-6v-2h-2l-5-8-8-8v-2h-2l-12-16-1-7z" fill="#F9F0E9"/>
<path transform="translate(1216,537)" d="m0 0 3 3-1 5-6 9-7 10-4 7-6 5-7 8-11 12-1 2h-2v2l-7 6-8 7-10 10-1 2h-2v2h-2v2l-11 9-8 9-7 6h-2v2h-2v2l-9 7h-3l1-4 4-5 7-6 5-7h2v-2l7-4 7-8 9-8 6-5 1-6 2-4 12-12 2-3 10-2 5-4-1-6 7-7 5-6 2-5 8-9 5-7 5-3z" fill="#FDF5EE"/>
<path transform="translate(1383,1258)" d="m0 0h2l1 6-4 13-5 8-1 2h-2l-2 5-5 6-1 3h-2l-2 4-3 5h-2l-1 4h-2l-2 4-4 2v2h-2v2h-2v2l-11 7-10 6-8 6-5 1-4-1 5-5 10-11 10-8 15-15 6-8 9-11 7-9 4-5 4-7h3v-4h2z" fill="#F9F0E9"/>
<path transform="translate(772,1360)" d="m0 0h125l34 1 29 2 9 5 8 2 11 7 7 6 2 1v2l5 2v2l4 2 17 17 4 3v2l4 2 4 4v2l4 2v2l4 2 39 39 5 6 7 6v2l4 2 4 4v2l5 2 2 6 5 5 4 2 1 2 3 2-3 1-15-12-4-8-12-8-10-11-8-7-20-20-7-8-31-31-8-7-11-10-15-11-16-8-8-3-33-2-28-1h-120l-46 3h-7l2-2 10-1z" fill="#3A3733"/>
<path transform="translate(1106,1159)" d="m0 0 4 2 5 5 7 8 9 10v2l4 2 10 9 8 7 5 4v2h2v2h2l7 8 17 17 8 7 9 9 6 5 6 7 8 7 9 9 7 6 7 8 9 8 5 6 7 6 7 8 9 7 8 7 5 4 11-2 3-1v-2l10-8 4-3 2 1-14 12-5 4-5 2h-6l-9-6-10-6v-2l-4-2-10-9-7-8-11-11-6-5-22-22-3-2v-2l-4-2-10-10-3-2v-2l-4-2-32-32-7-8-12-11-10-10-8-7-7-8-7-9z" fill="#393733"/>
<path transform="translate(456,1425)" d="m0 0h5l9 10 7 6 4 7 5 5 10 13 4 5 3 5 13 10 9 6 14 11 7 9 5 2-3 3-8-2-14-9-3-3-11-9-6-4v-2l-5-2v-2l-4-2v-2h-2v-2h-2l-10-14v-2h-2l-7-9-4-5v-2h-2l-7-8-5-7z" fill="#F9EFE8"/>
<path transform="translate(473,523)" d="m0 0h2l7 9 9 12v2l4 2 5 6 8 6 16 15 12 11 8 8 3 2v2l4 2v2h2l7 8 25 25 2 1v2l4 2 4 3v2l3 1v2h2v2h2l5 5v2l4 2 10 10 8 7 8 9 8 6 8 10 1 2-4-2-10-9-12-9-19-19-8-7-15-14-17-16-8-8v-2h-2l-7-8-36-36-8-7-9-9-8-7-8-9-7-11z" fill="#3A3733"/>
<path transform="translate(319,704)" d="m0 0 7 6 12 13 15 15 11 10 6 5 16 16 6 7 8 7 10 9 10 8 7 8 7 6 6 15 3 16 1 14 1 62v161l-1 15-3 8-1-3 1-3 1-15v-99l-1-93-1-37-2-22-6-15-8-10-11-11-11-9-11-10-31-31-8-7-8-8-8-7-11-12-6-7z" fill="#AA8E82"/>
<path transform="translate(988,1258)" d="m0 0 3 1-11 8-11 6-15 3h-101l-102-1-22-1-16-3-6-3v-1h6l10 2h23l2 1 11 1 142 1h44l16-1 11-3 10-6z" fill="#BFA59A"/>
<path transform="translate(540,1026)" d="m0 0 3 2 2 14 3 23 5 25 5 12 4 9 5 12 2 5 5 7 1 6-7-6-10-14-8-12-6-8-3-12-2-27v-34z" fill="#F9F1E9"/>
<path transform="translate(773,662)" d="m0 0h106l64 2 29 1 8 4 10 3 14 10 11 8 12 11 9 9 1 2h3l7-8 12-12 11-9 9-10 9-9v3l-14 14-7 8-8 7h-2l-2 4-8 7-7 8-4-1-15-16-13-10-11-8-8-5-18-7-33-1-19-1-82-1h-63l-35 1-21 2-7 3-8 5-2-1 11-8 9-3 15-1z" fill="#AA8E82"/>
<path transform="translate(774,664)" d="m0 0h66l79 1 46 2 9 1 17 7 12 8 7 6-2 1-9-7-8-4-9-4v-2l-7-1-6-2-86-2h-33l-81-1-31 1-21 3-10 4-5 4-8 5-4 5-1 2-4-1-8 5-3 3-2-1 9-9 14-9 4-3 7-3 8-5 14-2 11-1z" fill="#EED8CE"/>
<path transform="translate(574,776)" d="m0 0h2l-1 7-13 22-7 13-8 14-4 5-5 12-4 23-1 59 2 102 3 41 4 20 5 10 6 8 10 15v3l-3-3v-2h-2l-4-7v-2h-2l-6-8-7-11-2-11-2-15-2-24-2-48-1-72-1-34 1-23 3-16 3-10 4-8 7-8 6-12 5-8 8-15 4-9h2z" fill="#393733"/>
<path transform="translate(1105,785)" d="m0 0 4 2 9 10 8 12 9 12 12 13 5 8 1 4v29l-1 42-1 134h-1l-1-14-1-6v-27l-1-13v-47l2-61v-40l-9-8-10-14-7-10-3-5v-2h-2l-8-13-5-4z" fill="#EED8CE"/>
<path transform="translate(578,781)" d="m0 0h2l1 7-4 11h-2l-1 4-5 10-6 13-1 3h-2l-1 4-4 8-5 11-5 14-4 14-2 9h-2v-10l3-30 8-16 3-4 2-10 5-8h3l2-5 6-7 6-12z" fill="#FDF5EE"/>
<path transform="translate(687,1249)" d="m0 0h6l2 1 13 1 18 6 16 6 10 2 23 2 3 4-4 1h-15l-11-1-7-1h-18l-18-3-5-3-6-8-5-2-2-2z" fill="#FDF5EE"/>
<path transform="translate(773,1361)" d="m0 0h120l47 2 14 1 6 2-2 2-33-2-51-1h-110l-32 2h-8v2l-11 2-6 3-2-1 9-6 6-2 18-2z" fill="#C9AFA4"/>
<path transform="translate(734,668)" d="m0 0h9l16 1 3 3-9 2-26 3-13 3-12 1-1 4-3 3h-2v2l-9 3-2 4-3 1-2 4h-2v2l-13 9-9 1-1-5 5 1 5-3 7-7v-2l7-6 6-3 3 1 1-1 7-8 9-5 4-3 8-3z" fill="#FFF8F1"/>
<path transform="translate(389,777)" d="m0 0 4 2 12 11 11 9 12 12 7 11 4 11 2 22 1 37 1 93v99l-1 15-3 11-5 7-5 5-12 13-7 8-6 6-2-1 10-10 7-8 9-11 8-8 4-13 1-16v-54l-1-94v-31l-2-52-2-19-4-10-4-4-7-9-8-8-5-4v-2l-3-1-6-7-8-7z" fill="#EFD8CE"/>
<path transform="translate(1322,603)" d="m0 0 9 1 9 6 31 31 8 11 8 16-1 5-3-3-2-4-5-4-8-12-5-7-6-5v-2l-4-2-8-7-5-5v-2l-4-2-1-3-5-2-7-6z" fill="#F7EEE6"/>
<path transform="translate(1245,1089)" d="m0 0h2l4 15 5 10 3 5 12 15 9 11 7 7 16 14 7 8 13 12 32 32 8 9 6 9 7 10 4 9-2 9-3 4 2-9v-6l-9-14-10-14-16-16-2-1v-2l-4-2-9-8v-2l-4-2-17-17-6-5-6-7-8-7-10-10v-2h-2v-2h-2l-7-8-7-10-6-10-5-13z" fill="#393733"/>
<path transform="translate(1160,441)" d="m0 0 10 2 9 6 12 12v2h2l11 14 8 11 7 12v7h-3v-2h-3l-7-13-11-14-3-5-8-7-17-17-7-5z" fill="#F5EAE3"/>
<path transform="translate(399,597)" d="m0 0 4 1 8 6 13 12 17 17 7 8 66 66 7 8 8 8 8 7 26 26 5 4 3 4-1 3-3-3v-2l-3-1-5-5v-2l-4-2v-2l-4-2v-2l-4-2-17-17-6-5v-2l-4-2-5-6-7-6-6-7-28-28-8-7-7-7-7-6-7-8-13-13-6-7-5-5-2-4-3-1-5-6-4-3v-2l-5-2z" fill="#393733"/>
<path transform="translate(1057,1251)" d="m0 0 4 2 10 9 6 5v2l4 2 4 4v2l4 2 7 7 7 8 16 17 18 20 25 25 13 12 26 26 7 8-1 2-7-6-5-7-4-3v-2l-3-1-5-5v-2l-4-2v-2l-4-2v-2l-4-2-14-14-14-12-6-6v-2h-2l-6-7-4-3v-2h-2l-7-8-11-11-7-8-6-7-4-4v-2l-4-2-5-5-12-13-3-2v-2l-4-2z" fill="#3A3733"/>
<path transform="translate(967,573)" d="m0 0h6l-2 2-13 3-15 1h-71l-114-1-14-2v-1h210z" fill="#2F3A36"/>
<path transform="translate(402,793)" d="m0 0 4 1 8 7 11 11 8 13 2 9 2 11v7l-2 10-2-1-4-14-3-12-14-27-10-14z" fill="#FFF8F1"/>
<path transform="translate(1363,712)" d="m0 0 3 1-5 6-8 7-15 12-7 8-7 7-8 7-15 14-18 18-7 8-11 12-14 19-8 20-3 10h-1v-7l3-10 5-12 13-19 4-5h2l2-4 5-5 9-10 5-6h2l2-4h2l2-4h2l2-4 8-8 9-7 18-18 5-6 11-8 3-1 2-4 7-5z" fill="#393733"/>
<path transform="translate(544,835)" d="m0 0 1 2-6 13-3 26-1 11 1 67 1 80 2 36 1 14-2-4-2-17-2-30-2-112 1-49 4-23 6-13z" fill="#AA8E82"/>
<path transform="translate(551,823)" d="m0 0h1v6l-7 11-4 9-3 30-1 3v41l1 51 1 75 3 40 2 10-2-2-2-7-3-33-1-23-1-80-1-67 3-28 1-9 6-13 2-5z" fill="#EBD4CA"/>
<path transform="translate(410,603)" d="m0 0 4 2 6 4 9 10 64 64 7 8 59 59 8 7 10 10 3 4-3 10-2 2 1-12-8-9v-2l-4-2-4-5-8-7-21-21-8-7-9-9-7-8-66-66-7-8-18-18-6-5z" fill="#AB8F83"/>
<path transform="translate(460,1423)" d="m0 0 7 4 9 10 2 1v2l4 2 1 4 3 1 7 8 14 17 8 7 9 6v2l4 2 10 7 5 6v2h2l3 4 5 1-2 2-5-1-11-12-6-4-7-6-9-5-4-3-5-2-4-4-4-7-8-10-5-7-5-5-4-6-8-7-6-7z" fill="#403B37"/>
<path transform="translate(685,1387)" d="m0 0 2 1-13 12-17 17-7 8-15 16h-2l-2 4-11 11-8 7-19 19-4 6-2 2-5 2-18 12-4 4-2-1 5-6 6-4 14-10 6-5 24-24 2-3h2l2-4 6-5 5-5 11-10 2-4h2l2-4 11-11 5-6 8-7 12-11z" fill="#3C3935"/>
<path transform="translate(570,631)" d="m0 0 7 6 5 3 7 7 1 2 5 2 9 11 12 12 7 8 4 5-4 1-15-12v-2h-2l-10-10v-2h-2l-4-4v-2h-2v-2l-3-1-3-4v-2l-4-2v-2h-2v-3l-2-1-4-6z" fill="#FDF4ED"/>
<path transform="translate(572,440)" d="m0 0 5 1 12 11 8 8v2h2v2h2l7 8 13 13 7 8 15 16 11 11 4 5 8 7 9 8 11 9 9 5 8 5 4 3-6-1-18-11-13-11-8-7-11-10v-2h-2v-2l-4-2-12-12-7-8-12-13-3-3v-2h-2l-7-8-3-3v-2h-2l-7-8-10-10-8-6z" fill="#393733"/>
<path transform="translate(501,562)" d="m0 0h2l1 2 5 2 2 2 1 4 11 9 14 15 7 8 21 21v2l-4-2-11-8-8-8-2-4-1-3-5-2-10-9-17-17z" fill="#FDF5ED"/>
<path transform="translate(1105,1165)" d="m0 0 4 2 11 14 4 4 5 2 10 9 8 8 2 5 11 11v2h2l-1 3-7-6v-2l-4-2-4-3v-2l-4-2v-2l-4-2v-2l-5-2-5-3v-2h-2l-7-8-9-9-3-5-2-5z" fill="#FCF4ED"/>
<path transform="translate(1198,1256)" d="m0 0 4 2 10 10 8 7 16 16 3 2v2l4 2v2l4 2 16 16 6 7 8 6 4 4 11 6 4 3 9-1 4-1-3 3-5 2-7-1-13-7-6-2-7-8-33-33-4-6-15-15-8-7-10-10z" fill="#CAB1A7"/>
<path transform="translate(1156,442)" d="m0 0 5 2 9 7 20 20 5 4 4 7 9 11 8 16 1 10v5l1 2-4 7-3 9-9 11v-3l7-11 4-10 2-4-1-4v-8l-4-9-9-14-8-10-7-6-7-8-8-8v-2l-3-1-5-6-7-6z" fill="#3C3834"/>
<path transform="translate(523,451)" d="m0 0h2l-1 3h-2l-2 4-14 14-10 8-8 9-14 19-5 7-1-3 12-17-4-2 4-6 6-5h2v-2h2l1-4 4-5 7-3 5-6 1-3h9l2-4z" fill="#EED8CE"/>
<path transform="translate(1196,679)" d="m0 0 2 1-13 13-7 8-17 17-7 8-17 17-7 8-9 8-13 13-6 4-1-2 9-7 9-9 7-8 7-7 7-8 9-9 7-8 4-5h2l2-4 4-4h2l2-4 8-7h2l3-6 5-3z" fill="#EED8CE"/>
<path transform="translate(1238,900)" d="m0 0 2 3 1 100 1 45 1 27-2-2-2-29-1-35z" fill="#393733"/>
<path transform="translate(1077,1267)" d="m0 0 4 2 24 24 7 8 15 16v2h2l7 8 39 39 6 5 7 8 14 14 7 8-1 2-7-7-7-8-27-27-6-5-32-32-7-8-22-24-13-14-5-5-5-4z" fill="#AA8E82"/>
<path transform="translate(297,1260)" d="m0 0 4 4 6 8 14 12 7 8 3 3v3l3 1 7 8 9 9 3 2 1 3 10 4 8 5 7 5 3 5-4-2-13-9-17-8-13-13-4-6-5-5-4-6-6-7v-2h-3l-5-5-5-4-6-11z" fill="#3F3B36"/>
<path transform="translate(445,635)" d="m0 0 4 2 11 10 6 7 8 7 4 5 2 1v2l4 2 9 8 3 5 8 7 7 8 5 4 5 5 4 2v5h2l6 7 7 6 7 8 14 14h-3l-65-65-7-8-41-41z" fill="#EFD8CE"/>
<path transform="translate(1316,603)" d="m0 0 5 2 8 6 6 4 6 7 5 5 9 8 6 5v2l4 2 4 6 7 10v2l3 1 2 7-1 4-6-11-8-11-12-12-6-4-5-5-9-10-8-7-6-7z" fill="#403B37"/>
<path transform="translate(1215,1417)" d="m0 0 1 3-10 13-12 12-7 8-21 21-7 8-17 14-8 5-9 5-2-1 3-1 2-5 9-3 8-7 10-7 12-13 5-5h2l2-4 6-5 5-7 5-5 10-9 10-15z" fill="#3A3733"/>
<path transform="translate(437,890)" d="m0 0h1l1 10v63l-4-1v-3h2v-5l-2-4-1-11v-29l1-14-1-4z" fill="#FEF7F0"/>
<path transform="translate(707,1267)" d="m0 0h6l10 2h23l2 1 11 1 79 1v1l-30 1h-52l-35-1-10-3z" fill="#EFD8CE"/>
<path transform="translate(441,985)" d="m0 0h2v99l-1 15-3 11-5 7-5 5-12 13-7 8-6 6-2-1 10-10 7-8 9-11 8-8 4-13 1-16z" fill="#EFD8CE"/>
<path transform="translate(1162,592)" d="m0 0 2 1-7 8-8 7-16 16-8 7-12 13-8 7-3 5-4 5h-2l-2 4-5 4-7 6-8 8v-3l14-14 2-5 8-7 8-8 8-7 19-19 8-7z" fill="#E9D2C7"/>
<path transform="translate(703,1374)" d="m0 0h2l-1 3-5 5-9 8-8 6-24 24-8 7-13 14-2-1 8-8 7-8 15-16 17-17 10-8 9-8z" fill="#E1D0C7"/>
<path transform="translate(1257,1092)" d="m0 0h2l8 13 5 8 5 10-4 1-5-3-2-5h-2l-4-8-4-7v-8z" fill="#FFF8F1"/>
<path transform="translate(1218,1279)" d="m0 0 8 6v2l4 2 24 24 2 4-5-2-12-9-9-9v-2h-2v-2l-4-2v-2h-2l-4-8z" fill="#FFF8F1"/>
<path transform="translate(685,689)" d="m0 0 5 1-1 3h-2l-2 4-3 1-2 4h-2v2l-13 9-9 1-1-5 5 1 5-3 7-7v-2l7-6z" fill="#FEF6EF"/>
<path transform="translate(359,1183)" d="m0 0h3l-2 4-12 11-3 2-2 5-6 3-8 8-7 8-6 5 1-5 6-8 7-8 8-7 7-5h3l2-4h2l1-4h2l2-4z" fill="#FEF6EF"/>
<path transform="translate(481,1264)" d="m0 0 2 1-8 8-8 7-25 25-7 8-15 15-13 10-7 5v-3l12-9 13-12 18-18 4-5 10-10 12-11 7-7z" fill="#3A3733"/>
<path transform="translate(474,531)" d="m0 0 2 1v2l4 1 8 11 7 7 2 6-3 1v-2l-5-1-5-4v-2h-2v-2h-2l-6-10 1-3h-2l-1-3h2z" fill="#F4E9E2"/>
<path transform="translate(967,573)" d="m0 0h6l-2 2-13 3-15 1h-41l-6-1 1-2 57-1z" fill="#383733"/>
<path transform="translate(545,1329)" d="m0 0v3l-11 11-6 7-8 7-23 23-7 8-11 10-2-2 18-18 8-7 13-13 7-8 16-16z" fill="#C2A79C"/>
<path transform="translate(1117,1306)" d="m0 0 3 1v2l4 2 5 4v2l4 2 3 5 10 10 3 1v4l4 2 3 3v2l4 1v2l5 1 1 5 7 7 7 5 1 4-8-6-44-44v-2h-2l-7-8-3-3z" fill="#EFD8CE"/>
<path transform="translate(728,666)" d="m0 0h10v2l-21 3-10 4-5 4-8 5-4 5-1 2-4-1-8 5-3 3-2-1 9-9 14-9 4-3 7-3 8-5z" fill="#EDDBD3"/>
<path transform="translate(1191,1448)" d="m0 0v3l-2 4-4 4-2 5-3 1v2l-8 5-5 5-6 5-1 3-5 2-5 6-5 2-4 3-2-1 16-13 8-7 9-10z" fill="#CFBAB0"/>
<path transform="translate(667,1238)" d="m0 0 5 2 10 9 11 9 10 7 13 6 13 2 22 1v1h-25l-12-2-12-4-12-9-7-6v-2h-2v-2l-4-2-5-4v-2l-4-2z" fill="#393733"/>
<path transform="translate(1116,807)" d="m0 0 5 2 7 11 4 6 1 7h-3l-9-10-6-11z" fill="#FFF8F1"/>
<path transform="translate(1123,800)" d="m0 0 3 1 7 8 13 16 9 11 3 5v23l-2 4-1-21-5-13-8-10-11-12v-2h-2l-6-8z" fill="#393733"/>
<path transform="translate(1243,1299)" d="m0 0 4 2 16 16 6 7 8 6 4 4 11 6 4 3 9-1 4-1-3 3-5 2-7-1-13-7-10-9-16-16-5-6-5-5z" fill="#AA8E82"/>
<path transform="translate(1193,562)" d="m0 0 1 3-12 13 1 6-6 5-10 2h-3l20-20 8-7z" fill="#E0D0C8"/>
<path transform="translate(389,777)" d="m0 0 4 2 12 11 11 9 12 12 7 11-1 3-6-7-7-9-8-8-5-4v-2l-3-1-6-7-8-7z" fill="#EDDBD2"/>
<path transform="translate(1372,1271)" d="m0 0 1 2-9 11-7 9-9 11-7 8-13 13-2-1 4-4 2-4h2l2-4 9-10 7-8 6-5 6-9z" fill="#3A3733"/>
<path transform="translate(595,652)" d="m0 0 4 2 8 8 8 7 15 15 12 9 10 9 7 5 3 2-6-1-11-9-14-11-18-18-5-3-13-14z" fill="#AA8E82"/>
<path transform="translate(633,1441)" d="m0 0 2 1-3 5-7 6-7 8-24 24-3-1 7-8 20-20 8-7z" fill="#D0BAB0"/>
<path transform="translate(1191,1453)" d="m0 0 5 1-2 5-11 11-6 2-2 2h-4l2-4 5-3h2v-2l3-2 2-5 3-1 1-3z" fill="#FFF8F1"/>
<path transform="translate(979,674)" d="m0 0 9 2 9 7v2l2 1-3 3-16-8-2-4z" fill="#FFF8F1"/>
<path transform="translate(1141,840)" d="m0 0 5 3 2 3v9l-2 7h-3l-4-15v-6z" fill="#FFF8F1"/>
<path transform="translate(439,1066)" d="m0 0 2 1v20l-1 10-3-3-1-2v-21z" fill="#FFF8F1"/>
<path transform="translate(520,1356)" d="m0 0 2 1-24 24-7 8-4 4h-2l-2 4h-2l-2 4-5 6-4 3-2-1 2-3h2l2-4 10-10 8-7 12-13z" fill="#3A3733"/>
<path transform="translate(1215,1427)" d="m0 0 1 3-2 5-5 6-5 5h-2l-2 4h-2l-1-5 5-5z" fill="#FFF8F1"/>
<path transform="translate(759,1363)" d="m0 0h35v1l-51 2-19 1v2l-11 2-6 3-2-1 6-4 11-3 19-2z" fill="#EFD8CE"/>
<path transform="translate(1147,1205)" d="m0 0 8 6 16 17 20 20h-3l-23-23-5-3-7-8-6-6z" fill="#C1A89D"/>
<path transform="translate(988,1258)" d="m0 0 3 1-11 8-5 3-10 3-7 1-33 1v-2l36-2 11-3 10-6z" fill="#EFD8CE"/>
<path transform="translate(511,569)" d="m0 0 8 6 40 40-1 2-20-20-8-7-9-10-10-8z" fill="#BDA297"/>
<path transform="translate(611,669)" d="m0 0 4 2 17 17 10 8 9 7 5 5-5-2-9-5-7-8-14-12-10-11z" fill="#EED8CF"/>
<path transform="translate(552,1197)" d="m0 0v3l-15 14-12 13-18 18-2-1 22-22 8-10 6-5 5-5z" fill="#3A3733"/>
<path transform="translate(377,1172)" d="m0 0v3l-7 7-8 7-10 9-8 7-1-2 3-5 11-9 10-9 5-3z" fill="#D4BEB5"/>
<path transform="translate(1071,684)" d="m0 0v3l-8 9-5 5-8 6h-2l-1 3-5 5-4 2-1-2 4-2 7-8 8-7 5-5z" fill="#EFD8CE"/>
<path transform="translate(682,1391)" d="m0 0 2 1-26 26-7 8-14 15-2-1 8-8 7-8 15-16z" fill="#CAB0A5"/>
<path transform="translate(1162,592)" d="m0 0 2 1-7 8-8 7-16 16-8 7-6 6-2-1 16-16 8-7z" fill="#C5AA9F"/>
<path transform="translate(357,1325)" d="m0 0 10 4 17 13 4 4h8v2h-4v2h-6l-4-5-2-1v-2h-2l-1-3-13-9-7-3z" fill="#C1A89D"/>
<path transform="translate(507,1479)" d="m0 0 5 2 8 5 8 6 5 4 8 7 5 6 5 1 3 1-7 1-7-6-5-5-11-9-12-8z" fill="#AA8E82"/>
<path transform="translate(362,609)" d="m0 0 2 1-14 12-10 9-4 2 1-5 11-9 9-8 4-1z" fill="#BFA599"/>
<path transform="translate(439,1105)" d="m0 0 1 3-4 6-5 5-9 11-15 16-3 3-2-1 10-10 7-8 9-11 8-8z" fill="#AA8E82"/>
<path transform="translate(1087,464)" d="m0 0v3l-7 8-7 6-1 2h-2l-2 4-11 11v-3l10-10 2-4 15-15z" fill="#C5ABA0"/>
<path transform="translate(358,746)" d="m0 0 4 2 25 25 2 4-4-2-10-8-2-4-14-15z" fill="#EFD8CE"/>
<path transform="translate(1051,500)" d="m0 0 3 1-30 30v-3l14-15z" fill="#CEB5AA"/>
<path transform="translate(545,1331)" d="m0 0v3l-8 8-7 8-7 7-2-2 11-10 7-8z" fill="#273D38"/>
<path transform="translate(697,677)" d="m0 0 2 1-9 11-1 2-4-1-8 5-3 3-2-1 9-9 14-9z" fill="#C3AA9F"/>
<path transform="translate(1382,687)" d="m0 0h1v6l-6 10-9 10-2-1 1-4 9-9z" fill="#3A3733"/>
<path transform="translate(560,751)" d="m0 0 7 6 10 10 3 4-3 10-2 2 1-12-8-9v-2l-4-2-4-5z" fill="#AA8E82"/>
<path transform="translate(537,596)" d="m0 0 7 6 14 14 3 1 7 8 3 4-4-1-30-30z" fill="#E1CFC6"/>
<path transform="translate(1215,514)" d="m0 0h2v10l1 2-4 7-3 9-9 11v-3l7-11 4-10 2-4-1-4z" fill="#3A3733"/>
<path transform="translate(574,783)" d="m0 0 1 2-3 6-2 8-8 10-1 2h-2l2-6z" fill="#CBB4AA"/>
<path transform="translate(551,823)" d="m0 0h1v6l-7 11-4 9-1 9-2 1v-9l6-13 2-5z" fill="#EED9D0"/>
<path transform="translate(1014,693)" d="m0 0 4 2 10 9 9 10h-3-2l-5-5-8-10z" fill="#EFD8CE"/>
<path transform="translate(495,1378)" d="m0 0 1 4-10 10-8 6v-3z" fill="#D0B7AC"/>
<path transform="translate(341,1205)" d="m0 0 2 1-18 18-2-2 14-15z" fill="#CDB6AB"/>
<path transform="translate(1310,764)" d="m0 0 2 1-28 28-1 2-2-1 7-8z" fill="#B2978B"/>
<path transform="translate(1108,1165)" d="m0 0 4 2 10 13 5 6-4-1-10-11-5-7z" fill="#D1BAB0"/>
<path transform="translate(543,1324)" d="m0 0 3 1-3 5-2 4-3 2h-3l1-6z" fill="#FEF7F0"/>
<path transform="translate(1164,1476)" d="m0 0v3l-3 3-1 3-5 2-5 6-5 2-4 3-2-1 16-13 8-7z" fill="#BDA499"/>
<path transform="translate(1209,1403)" d="m0 0 5 4 5 8-1 4-6 9-4 3 2-4 5-7v-6l-6-9z" fill="#AA8E82"/>
<path transform="translate(1351,1299)" d="m0 0 1 4-22 22-2-1 18-18z" fill="#BEA499"/>
<path transform="translate(334,633)" d="m0 0 2 1-8 8-9 7-7 6v-3l9-9 7-4z" fill="#C4AA9F"/>
<path transform="translate(1278,1336)" d="m0 0 18 9 5 1v1h-9l-5-2-1-2-4-2z" fill="#EFD8CE"/>
<path transform="translate(505,1245)" d="m0 0h2v2l-8 7-5 6-7 4-2-1 9-8 8-7z" fill="#D2BBB1"/>
<path transform="translate(431,821)" d="m0 0 3 3 3 8 1 6v13h-1l-3-17-2-9z" fill="#EBE0DA"/>
<path transform="translate(1306,770)" d="m0 0v3l-7 8-8 7-4 5-4 2 2-4z" fill="#EDDAD2"/>
<path transform="translate(467,1407)" d="m0 0h2l-2 4-6 8-1 6-3-3 1-6 5-5h2z" fill="#C4A99E"/>
<path transform="translate(740,1269)" d="m0 0h6l2 1 11 1v1h-27l-7-1v-1z" fill="#EBE0DA"/>
<path transform="translate(1165,1480)" d="m0 0h2v5l-5 4h-6l2-4h2v-2z" fill="#FFF8F1"/>
<path transform="translate(679,1246)" d="m0 0 6 2 5 6 5 2 5 6h-3l-11-9-7-6z" fill="#C1A89D"/>
<path transform="translate(1088,1481)" d="m0 0 9 5 5 5 2 6-7-6-7-7-2-1z" fill="#AB8F83"/>
<path transform="translate(1234,1292)" d="m0 0 5 1v2l4 2 4 7v3l-12-12z" fill="#DDC7BE"/>
<path transform="translate(1380,667)" d="m0 0 3 4 2 5v14l-2 3-1-16z" fill="#AA8E82"/>
<path transform="translate(764,1365)" d="m0 0h25l-2 2-14 1-8-1z" fill="#FFF8F1"/>
<path transform="translate(389,777)" d="m0 0 4 2 12 11 7 6h-3l-4-2-6-7-8-7z" fill="#EED8CF"/>
<path transform="translate(707,1267)" d="m0 0h6l10 2-1 3h7v1h-8l-10-3z" fill="#C9B2A7"/>
<path transform="translate(377,1172)" d="m0 0v3l-7 7-8 7-4 2 3-6 6-5 5-3z" fill="#BFA59A"/>
<path transform="translate(988,1258)" d="m0 0 3 1-11 8-5 3h-2l1-3 11-7z" fill="#D2B9AE"/>
<path transform="translate(310,693)" d="m0 0 9 9 2 5 4 4-1 2-7-7-2-3v-3l-4-2z" fill="#D7BEB4"/>
<path transform="translate(1214,1273)" d="m0 0 4 2 16 16-1 2-7-6-5-5-7-8z" fill="#EED9D0"/>
<path transform="translate(1102,785)" d="m0 0 4 2 2 2v6l-4-1-3-5z" fill="#FFF8F1"/>
<path transform="translate(351,616)" d="m0 0m-1 1m-1 1v3l-9 10-4 2 1-5 11-9z" fill="#D6BEB3"/>
<path transform="translate(1189,1249)" d="m0 0 4 1 5 5 7 8 2 3-4-2-14-14z" fill="#E1C9BF"/>
<path transform="translate(1104,1497)" d="m0 0 9 6 6 5-2 1-9-5-4-4z" fill="#CEB7AD"/>
<path transform="translate(1088,1483)" d="m0 0 4 2 12 12-1 2-6-4-9-11z" fill="#EDDAD1"/>
<path transform="translate(702,1372)" d="m0 0 4 1-10 7-7 7-2-1 12-12z" fill="#3A3733"/>
<path transform="translate(576,1492)" d="m0 0m-1 1m-1 1m-2 1h2l-1 3-10 7-3 3-2-1 5-6 6-4z" fill="#3A3733"/>
<path transform="translate(684,536)" d="m0 0 5 1 5 6-3 1-6-3z" fill="#FFF8F1"/>
<path transform="translate(527,1495)" d="m0 0 4 2 9 7 5 7-4-2-7-7-7-6z" fill="#EDDAD2"/>
<path transform="translate(722,1366)" d="m0 0h5l-3 1v2l-11 2-6 3-2-1 6-4z" fill="#E1CCC2"/>
<path transform="translate(538,859)" d="m0 0h1l-1 20-2-3v-11z" fill="#EDDBD2"/>
<path transform="translate(1106,646)" d="m0 0 2 1-17 17h-2l1-3 8-7z" fill="#AA8E82"/>
<path transform="translate(575,1156)" d="m0 0h1v7l-5 12-4 4 2-6 5-11z" fill="#3A3733"/>
<path transform="translate(595,652)" d="m0 0 4 2 8 8 5 7-4-2-13-14z" fill="#CBB2A6"/>
<path transform="translate(1127,1186)" d="m0 0 8 6 8 8-3 1-9-10-4-2z" fill="#C2A99E"/>
<path transform="translate(689,686)" d="m0 0 2 1-2 4-4-1-8 5-3 3-2-1 7-7z" fill="#DCC8C0"/>
<path transform="translate(1279,798)" d="m0 0v3l-11 12-2 3h-2l2-4 8-8z" fill="#EDDAD1"/>
<path transform="translate(565,755)" d="m0 0 4 2 9 8 2 3-1 3-11-12z" fill="#EFD8CE"/>
<path transform="translate(633,1441)" d="m0 0 2 1-3 5-8 7-4 2 6-7z" fill="#CCB3A8"/>
<path transform="translate(581,1288)" d="m0 0 2 1-8 10-1-4 1-3h2v-2z" fill="#C8AEA3"/>
<path transform="translate(1193,562)" d="m0 0 1 3-13 14v-3l11-12z" fill="#DFCDC4"/>
<path transform="translate(583,1490)" d="m0 0 2 1-5 6-7 1 4-4z" fill="#C7AFA4"/>
<path transform="translate(708,672)" d="m0 0 2 1-8 6-6 2 3-5 7-3z" fill="#E8D6CD"/>
<path transform="translate(578,636)" d="m0 0 4 2 11 11-3 1-9-10z" fill="#B3978C"/>
<path transform="translate(480,1397)" d="m0 0v3l-6 7-4 3-2-1 5-5z" fill="#373733"/>
<path transform="translate(1147,1205)" d="m0 0 8 6 6 6-1 2-9-9-4-2z" fill="#B59B8F"/>
<path transform="translate(436,1107)" d="m0 0h2l-2 5-8 8-2-1 4-5 5-4z" fill="#EFD8CE"/>
<path transform="translate(996,679)" d="m0 0 7 4 7 6-2 1-9-7-3-2z" fill="#EFD8CE"/>
<path transform="translate(728,666)" d="m0 0h10v2l-4 1h-7z" fill="#EEDAD1"/>
<path transform="translate(551,823)" d="m0 0h1v6l-5 5-2 1 2-4z" fill="#CAB2A8"/>
<path transform="translate(576,781)" d="m0 0 2 1-4 10-3 3 1-6z" fill="#EBDED7"/>
</svg>
